<?xml version="1.0" encoding="UTF-8" standalone="no"?>
<!-- Created with Inkscape (http://www.inkscape.org/) -->

<svg
   xmlns:dc="http://purl.org/dc/elements/1.1/"
   xmlns:cc="http://creativecommons.org/ns#"
   xmlns:rdf="http://www.w3.org/1999/02/22-rdf-syntax-ns#"
   xmlns:svg="http://www.w3.org/2000/svg"
   xmlns="http://www.w3.org/2000/svg"
   xmlns:xlink="http://www.w3.org/1999/xlink"
   xmlns:sodipodi="http://sodipodi.sourceforge.net/DTD/sodipodi-0.dtd"
   xmlns:inkscape="http://www.inkscape.org/namespaces/inkscape"
   width="210mm"
   height="297mm"
   viewBox="0 0 744.09448819 1052.3622047"
   id="svg5029"
   version="1.1"
   inkscape:version="0.91 r13725"
   sodipodi:docname="dory.svg"
   inkscape:export-filename="C:\Users\Andrea\Desktop\img\dib\Imagenes\27.png"
   inkscape:export-xdpi="90"
   inkscape:export-ydpi="90">
  <defs
     id="defs5031">
    <linearGradient
       inkscape:collect="always"
       id="linearGradient5720">
      <stop
         style="stop-color:#213100;stop-opacity:1"
         offset="0"
         id="stop5722" />
      <stop
         style="stop-color:#b8f79d;stop-opacity:1"
         offset="1"
         id="stop5724" />
    </linearGradient>
    <linearGradient
       inkscape:collect="always"
       id="linearGradient5690">
      <stop
         style="stop-color:#363461;stop-opacity:1"
         offset="0"
         id="stop5692" />
      <stop
         style="stop-color:#050ae2;stop-opacity:1"
         offset="1"
         id="stop5694" />
    </linearGradient>
    <linearGradient
       inkscape:collect="always"
       id="linearGradient5674">
      <stop
         style="stop-color:#efd211;stop-opacity:1"
         offset="0"
         id="stop5676" />
      <stop
         style="stop-color:#615d11;stop-opacity:1"
         offset="1"
         id="stop5678" />
    </linearGradient>
    <linearGradient
       inkscape:collect="always"
       id="linearGradient5653">
      <stop
         style="stop-color:#d871a4;stop-opacity:1;"
         offset="0"
         id="stop5655" />
      <stop
         style="stop-color:#8571d2;stop-opacity:1"
         offset="1"
         id="stop5657" />
    </linearGradient>
    <linearGradient
       inkscape:collect="always"
       xlink:href="#linearGradient5653"
       id="linearGradient5659"
       x1="355.82141"
       y1="528.96936"
       x2="370.78571"
       y2="518.43359"
       gradientUnits="userSpaceOnUse" />
    <linearGradient
       inkscape:collect="always"
       xlink:href="#linearGradient5653"
       id="linearGradient5667"
       x1="379.71603"
       y1="519.93073"
       x2="390.23636"
       y2="510.64502"
       gradientUnits="userSpaceOnUse" />
    <linearGradient
       inkscape:collect="always"
       xlink:href="#linearGradient5674"
       id="linearGradient5680"
       x1="251.19275"
       y1="569.62323"
       x2="282.55096"
       y2="567.98175"
       gradientUnits="userSpaceOnUse" />
    <linearGradient
       inkscape:collect="always"
       xlink:href="#linearGradient5690"
       id="linearGradient5696"
       x1="312.64221"
       y1="580.82544"
       x2="407.8082"
       y2="551.53101"
       gradientUnits="userSpaceOnUse" />
    <linearGradient
       inkscape:collect="always"
       xlink:href="#linearGradient5690"
       id="linearGradient5714"
       x1="321.108"
       y1="571.58221"
       x2="351.97598"
       y2="556.58221"
       gradientUnits="userSpaceOnUse" />
    <radialGradient
       inkscape:collect="always"
       xlink:href="#linearGradient5720"
       id="radialGradient5726"
       cx="328.57144"
       cy="560.93359"
       fx="328.57144"
       fy="560.93359"
       r="105.10714"
       gradientTransform="matrix(0.99056904,-0.13701454,0.19221388,1.3896417,-104.72048,-173.54409)"
       gradientUnits="userSpaceOnUse" />
  </defs>
  <sodipodi:namedview
     id="base"
     pagecolor="#ffffff"
     bordercolor="#666666"
     borderopacity="1.0"
     inkscape:pageopacity="0.0"
     inkscape:pageshadow="2"
     inkscape:zoom="1.979899"
     inkscape:cx="343.90537"
     inkscape:cy="472.36903"
     inkscape:document-units="px"
     inkscape:current-layer="layer1"
     showgrid="false"
     inkscape:window-width="1920"
     inkscape:window-height="1017"
     inkscape:window-x="-8"
     inkscape:window-y="-8"
     inkscape:window-maximized="1" />
  <metadata
     id="metadata5034">
    <rdf:RDF>
      <cc:Work
         rdf:about="">
        <dc:format>image/svg+xml</dc:format>
        <dc:type
           rdf:resource="http://purl.org/dc/dcmitype/StillImage" />
        <dc:title />
      </cc:Work>
    </rdf:RDF>
  </metadata>
  <g
     inkscape:label="Capa 1"
     inkscape:groupmode="layer"
     id="layer1">
    <rect
       ry="0"
       y="414.86221"
       x="224.46429"
       height="292.14282"
       width="208.21428"
       id="rect3347"
       style="fill:url(#radialGradient5726);fill-opacity:1;fill-rule:evenodd;stroke:#000000;stroke-width:2;stroke-linecap:butt;stroke-linejoin:miter;stroke-miterlimit:4;stroke-dasharray:none;stroke-opacity:1"
       inkscape:export-xdpi="90"
       inkscape:export-ydpi="90" />
    <g
       id="g5728">
      <path
         sodipodi:nodetypes="ccccc"
         inkscape:connector-curvature="0"
         id="path5718"
         d="m 422.05357,517.63006 -26.875,27.58929 2.41072,22.58928 8.30357,0.44643 c -1.07918,-19.24447 13.81105,-36.98576 16.16071,-50.625 z"
         style="fill:#fbf054;fill-rule:evenodd;stroke:none;stroke-width:0.5;stroke-linecap:butt;stroke-linejoin:miter;stroke-miterlimit:4;stroke-dasharray:none;stroke-opacity:1;fill-opacity:1" />
      <path
         sodipodi:nodetypes="cccccc"
         inkscape:connector-curvature="0"
         id="path5716"
         d="m 422.14286,517.3622 c -8.96042,6.18526 -18.54473,14.26339 -25.26786,22.58929 l -5.80357,28.48214 9.73214,5.08929 4.64286,-5.26786 c -8.05479,0.30646 -21.3236,-14.28041 16.69643,-50.89286 z"
         style="fill:#6461b0;fill-rule:evenodd;stroke:none;stroke-width:0.5;stroke-linecap:butt;stroke-linejoin:miter;stroke-miterlimit:4;stroke-dasharray:none;stroke-opacity:1;fill-opacity:1" />
      <path
         sodipodi:nodetypes="cccccc"
         inkscape:connector-curvature="0"
         id="path5649"
         d="m 363.33924,556.69297 c 7.48386,-2.93322 21.6798,5.83217 32.10933,8.49571 2.54886,3.64076 3.97936,8.12972 5.20318,11.77048 l -6.31345,4.10375 -26.20083,-18.11961 z"
         style="fill:#020209;fill-opacity:1;fill-rule:evenodd;stroke:none;stroke-width:0.5;stroke-linecap:butt;stroke-linejoin:miter;stroke-miterlimit:4;stroke-dasharray:none;stroke-opacity:1" />
      <path
         sodipodi:nodetypes="cccccc"
         inkscape:connector-curvature="0"
         id="path5698"
         d="m 302.09875,587.25009 c 2.2518,1.15626 4.50359,2.48969 6.75539,1.19956 l 13.8896,8.08122 -2.39911,3.15672 -16.47812,-10.22779 z"
         style="fill:#2b54b5;fill-rule:evenodd;stroke:none;stroke-width:0.5;stroke-linecap:butt;stroke-linejoin:miter;stroke-miterlimit:4;stroke-dasharray:none;stroke-opacity:1;fill-opacity:1" />
      <path
         sodipodi:nodetypes="cccccccccscccc"
         inkscape:connector-curvature="0"
         id="path5615"
         d="m 288.42919,561.30551 c 20.83559,-23.32731 26.3186,-77.5275 52.24476,-75.13381 26.49579,11.90278 28.22803,-0.20043 33.08249,2.52538 8.17842,5.35462 2.7368,10.84375 8.33376,14.64722 l 9.09137,23.10723 13.00572,26.01143 c 1.96174,5.07272 -1.42866,6.43798 -3.40927,8.71257 -14.19419,2.77644 -25.36612,-2.50651 -37.75445,-4.54569 5.43649,14.77197 57.20763,48.15181 32.95623,9.59645 16.38392,20.74684 3.58137,35.74976 -7.32361,47.09836 -23.80391,24.77228 -64.08268,-13.51719 -80.30713,-24.62246 -6.09595,-6.49364 -13.71013,-7.42045 -20.70812,-10.60661 l 20.70812,-10.35406 z"
         style="fill:url(#linearGradient5696);fill-opacity:1;fill-rule:evenodd;stroke:none;stroke-width:1px;stroke-linecap:butt;stroke-linejoin:miter;stroke-opacity:1" />
      <path
         sodipodi:nodetypes="cccc"
         inkscape:connector-curvature="0"
         id="path5617"
         d="m 235.71429,535.75506 c -7.90917,20.73185 0.34492,36.56575 7.67857,52.67857 21.77879,-2.89176 44.44396,-14.94167 66.05348,-18.67975 -0.12754,-10.83988 -50.35597,-11.07753 -73.73205,-33.99882 z"
         style="fill:url(#linearGradient5680);fill-opacity:1;fill-rule:evenodd;stroke:none;stroke-width:1px;stroke-linecap:butt;stroke-linejoin:miter;stroke-opacity:1" />
      <path
         sodipodi:nodetypes="cccccsscccc"
         inkscape:connector-curvature="0"
         id="path5621"
         d="m 235.53572,534.50506 c 26.31762,22.72473 53.82164,24.05592 59.66768,17.37417 11.85208,-11.98561 17.6491,-62.44788 44.26089,-66.30274 l 18.57143,10 c -12.53797,-0.52055 -16.2032,7.42833 -18.39286,16.78571 3.2397,-23.1406 -31.45815,2.29834 -12.67857,23.21429 10.36583,11.54504 16.5017,19.60158 15.53572,42.85714 -0.28478,6.85578 -37.74604,-2.50395 -56.9643,0 l -41.96428,10.35715 c 21.34582,-5.96835 42.65727,-11.69619 64.46428,-20.89286 -30.27327,-10.36078 -56.31061,-15.46523 -72.49999,-33.39286 z"
         style="fill:#050a2f;fill-rule:evenodd;stroke:none;stroke-width:1px;stroke-linecap:butt;stroke-linejoin:miter;stroke-opacity:1;fill-opacity:1" />
      <path
         sodipodi:nodetypes="cccc"
         inkscape:connector-curvature="0"
         id="path5623"
         d="m 319.2082,564.83733 c 3.18987,-7.87508 4.43514,-21.25984 15.27856,-7.44987 3.61348,6.20418 8.54547,22.8273 -8.46003,17.67767 -3.44068,-3.24243 -15.96198,-5.18763 -6.81853,-10.2278 z"
         style="fill:url(#linearGradient5714);fill-rule:evenodd;stroke:none;stroke-width:1px;stroke-linecap:butt;stroke-linejoin:miter;stroke-opacity:1;fill-opacity:1" />
      <path
         sodipodi:nodetypes="cccccc"
         inkscape:connector-curvature="0"
         id="path5625"
         d="m 339.97947,485.54035 c -14.74381,-2.35995 -21.29287,5.15413 -38.95401,43.05776 -4.85345,8.74954 -9.71672,17.40097 -14.89975,22.8547 3.78208,-0.64756 9.1267,-2.97785 8.83883,0.75761 9.74695,-14.86582 16.52093,-33.88118 24.55934,-51.13896 5.3499,-8.42883 12.41396,-13.47434 20.45559,-15.53111 z"
         style="fill:#2963e7;fill-opacity:1;fill-rule:evenodd;stroke:none;stroke-width:1px;stroke-linecap:butt;stroke-linejoin:miter;stroke-opacity:1" />
      <path
         sodipodi:open="true"
         d="m 374.62179,523.61218 a 13.639642,13.371784 0 0 1 -13.60951,13.37175 13.639642,13.371784 0 0 1 -13.66964,-13.31267 13.639642,13.371784 0 0 1 13.54911,-13.43057 13.639642,13.371784 0 0 1 13.72951,13.25334"
         sodipodi:end="6.2743489"
         sodipodi:start="0"
         sodipodi:ry="13.371784"
         sodipodi:rx="13.639642"
         sodipodi:cy="523.61218"
         sodipodi:cx="360.98215"
         sodipodi:type="arc"
         id="path5627"
         style="fill:#ffffff;fill-opacity:1;stroke:#000000;stroke-width:0.5;stroke-miterlimit:4;stroke-dasharray:none;stroke-opacity:1" />
      <path
         id="path5629"
         d="M 361.55664 516.82617 A 7.6785712 7.5 0 0 0 353.92773 524.35938 A 7.6785712 7.5 0 0 0 361.625 531.82617 A 7.6785712 7.5 0 0 0 369.28516 524.32617 L 369.28516 524.25977 A 7.6785712 7.5 0 0 0 367.86328 519.99414 A 0.98214287 1.3392857 0 0 1 367.05664 520.57617 A 0.98214287 1.3392857 0 0 1 366.07227 519.24219 A 0.98214287 1.3392857 0 0 1 366.29102 518.39453 A 7.6785712 7.5 0 0 0 361.55664 516.82617 z "
         style="fill:url(#linearGradient5659);fill-opacity:1;stroke:#000000;stroke-width:0.5;stroke-miterlimit:4;stroke-dasharray:none;stroke-opacity:1" />
      <path
         d="m 366.09306,524.32648 a 4.7537689,4.3073401 0 0 1 -4.74327,4.30733 4.7537689,4.3073401 0 0 1 -4.76422,-4.28831 4.7537689,4.3073401 0 0 1 4.72224,-4.32627 4.7537689,4.3073401 0 0 1 4.78507,4.26921"
         sodipodi:open="true"
         sodipodi:end="6.2743539"
         sodipodi:start="0"
         sodipodi:ry="4.3073401"
         sodipodi:rx="4.7537689"
         sodipodi:cy="524.32648"
         sodipodi:cx="361.33929"
         sodipodi:type="arc"
         id="path5631"
         style="fill:#080000;fill-opacity:1;stroke:#000000;stroke-width:0.45674869;stroke-miterlimit:4;stroke-dasharray:none;stroke-opacity:1" />
      <path
         sodipodi:nodetypes="csssc"
         inkscape:connector-curvature="0"
         id="path5635"
         d="m 383.66072,519.59435 c -7.00749,-9.16512 -6.96286,-14.68158 -1.78572,-16.25 5.2152,-1.57995 10.11227,3.54457 11.78572,8.39285 2.53423,7.34211 -0.40898,13.64899 -2.41072,13.21429 -2.66064,-0.57779 -4.90338,-2.32226 -7.58928,-5.35714 z"
         style="fill:#ffffff;fill-rule:evenodd;stroke:#000000;stroke-width:0.5;stroke-linecap:butt;stroke-linejoin:miter;stroke-miterlimit:4;stroke-dasharray:none;stroke-opacity:1;fill-opacity:1" />
      <path
         sodipodi:nodetypes="cccscc"
         inkscape:connector-curvature="0"
         id="path5637"
         d="m 378.92857,511.1122 c 1.12467,4.27981 4.07545,8.27869 8.48215,12.05357 3.42443,-2.57692 4.45309,-6.97637 1.78571,-10.35714 -0.63717,0.28486 -0.91984,0.71991 -1.7803,-0.22097 -0.61438,-0.6718 -0.70595,-1.42509 0.17316,-2.01117 -3.18071,-1.6262 -6.06927,-1.4578 -8.66072,0.53571 z"
         style="fill:url(#linearGradient5667);fill-rule:evenodd;stroke:#000000;stroke-width:0.5;stroke-linecap:butt;stroke-linejoin:miter;stroke-miterlimit:4;stroke-dasharray:none;stroke-opacity:1;fill-opacity:1" />
      <path
         sodipodi:nodetypes="cscc"
         inkscape:connector-curvature="0"
         id="path5639"
         d="m 379.84893,513.50895 c 1.9751,-1.0509 5.06385,-1.37221 6.53442,0.72605 1.58022,2.25471 0.56824,5.07876 -0.97859,7.00794 -2.50846,-2.20871 -4.39407,-4.76777 -5.55583,-7.73399 z"
         style="fill:#080000;fill-rule:evenodd;stroke:#000000;stroke-width:0.30000001;stroke-linecap:butt;stroke-linejoin:miter;stroke-miterlimit:4;stroke-dasharray:none;stroke-opacity:1;fill-opacity:1" />
      <path
         sodipodi:nodetypes="ccccc"
         inkscape:connector-curvature="0"
         id="path5641"
         d="m 349.28572,595.30863 c -7.67857,0.44643 -16.96429,-3.27575 -23.66072,2.14286 8.4417,4.87743 -10.06928,34.70006 -10.71428,33.83929 17.35952,-4.73656 28.69803,-24.10131 35.53571,-33.21429 4.07097,-3.41903 1.06561,-3.05031 -1.16071,-2.76786 z"
         style="fill:#284df7;fill-rule:evenodd;stroke:none;stroke-width:0.5;stroke-linecap:butt;stroke-linejoin:miter;stroke-miterlimit:4;stroke-dasharray:none;stroke-opacity:1;fill-opacity:1" />
      <path
         sodipodi:nodetypes="ccccc"
         inkscape:connector-curvature="0"
         id="path5643"
         d="m 324.01786,598.07649 3.125,-1.78572 c 10.20287,11.25403 2.6434,21.65768 -5.80357,32.67858 l -11.42857,4.10714 c 13.42806,-7.05338 23.93399,-22.0257 14.10714,-35 z"
         style="fill:#240d1f;fill-rule:evenodd;stroke:none;stroke-width:0.5;stroke-linecap:butt;stroke-linejoin:miter;stroke-miterlimit:4;stroke-dasharray:none;stroke-opacity:1;fill-opacity:1" />
      <path
         sodipodi:nodetypes="cccccc"
         inkscape:connector-curvature="0"
         id="path5645"
         d="m 324.10714,597.89791 c -1.17275,0.3578 -2.18722,-0.0758 -3.57143,1.33929 -3.79584,10.53572 -0.97762,22.55985 -14.99999,31.875 -2.54776,2.52984 -0.92206,2.74109 0.71428,2.94643 l 5.08929,-1.16071 c 18.08295,-11.20191 19.74025,-26.6465 12.76785,-35.00001 z"
         style="fill:#c1b53c;fill-rule:evenodd;stroke:none;stroke-width:0.5;stroke-linecap:butt;stroke-linejoin:miter;stroke-miterlimit:4;stroke-dasharray:none;stroke-opacity:1;fill-opacity:1" />
      <path
         sodipodi:nodetypes="cccc"
         inkscape:connector-curvature="0"
         id="path5647"
         d="m 362.593,556.13428 3.76138,2.69629 c 8.27253,12.38951 39.64699,28.45355 30.7497,8.8592 22.52238,31.18605 -20.89362,15.25541 -34.51108,-11.55549 z"
         style="fill:#2756da;fill-opacity:1;fill-rule:evenodd;stroke:none;stroke-width:0.5;stroke-linecap:butt;stroke-linejoin:miter;stroke-miterlimit:4;stroke-dasharray:none;stroke-opacity:1" />
      <path
         sodipodi:nodetypes="cccc"
         inkscape:connector-curvature="0"
         id="path5651"
         d="m 363.60757,556.70876 c 12.22237,1.4685 24.79491,6.87531 37.48612,4.59304 l -0.31567,3.53553 c -13.06577,1.9353 -26.1746,-5.14157 -37.17045,-8.12857 z"
         style="fill:#c2c6b5;fill-opacity:1;fill-rule:evenodd;stroke:none;stroke-width:0.5;stroke-linecap:butt;stroke-linejoin:miter;stroke-miterlimit:4;stroke-dasharray:none;stroke-opacity:1" />
    </g>
  </g>
</svg>
